<svg xmlns="http://www.w3.org/2000/svg" viewBox="0 0 162 220"><path fill="#3095b4" d="M145.41 76.3c10.4 10.8 16 25 15.7 40-.3 15-6.4 29-17.2 39.4l-1.9 1.8-15.1-15.5 2-1.9c6.6-6.4 10.4-15 10.5-24.2.2-9.2-3.3-17.9-9.6-24.5-3.7-3.8-7.6-6.6-12.4-8.4V60.6c10.6 2.4 20.3 7.8 28 15.7M24.31 14.4l-10.8 10.2 15 15.6 10.7-10.3a25.9 25.9 0 0 1 36.6.6 25.9 25.9 0 0 1-.7 36.6l-10.7 10.2 15 15.6 10.7-10.2a47.54 47.54 0 0 0 1.2-67.2c-18-18.9-48.2-19.4-67-1.1"/><path fill="#005172" d="m10.11 36 148.1 153.8-15.6 15-23.4-24.2-23.1 22.3c-10.8 10.4-25 16-40 15.8h-.1c-15-.3-28.9-6.3-39.3-17.1a55.7 55.7 0 0 1-15.7-40c.3-15 6.4-29 17.2-39.4l15.5-14.9 15.1 15.6-15.5 14.9a34.1 34.1 0 0 0-10.5 24.2 34.28 34.28 0 0 0 33.7 35c9.2.2 17.9-3.3 24.6-9.7l23.1-22.3-94.1-97.6z"/></svg>